<?xml version="1.0" encoding="UTF-8" standalone="no"?>
<!DOCTYPE svg PUBLIC "-//W3C//DTD SVG 1.1//EN" "http://www.w3.org/Graphics/SVG/1.1/DTD/svg11.dtd">
<svg width="100%" height="100%" viewBox="0 0 1024 768" version="1.1" xmlns="http://www.w3.org/2000/svg" xmlns:xlink="http://www.w3.org/1999/xlink" xml:space="preserve" xmlns:serif="http://www.serif.com/" style="fill-rule:evenodd;clip-rule:evenodd;stroke-linejoin:round;stroke-miterlimit:2;">
    <g id="path2" transform="matrix(1.62646,0,0,1.62646,-302.768,-406.304)">
        <path d="M636.701,625.519L810.781,356.485C828.287,329.444 795.865,297.97 769.354,316.258L587.633,441.599C581.507,445.83 573.436,445.944 567.198,441.902L405.911,337.553C392.258,328.724 374.032,332.626 365.205,346.279L191.111,615.326C173.606,642.367 206.028,673.841 232.537,655.552L414.297,530.2C420.423,525.968 428.494,525.854 434.745,529.896L596.006,634.245C609.66,643.074 627.885,639.172 636.714,625.519L636.701,625.519Z" style="fill:rgb(8,102,255);fill-rule:nonzero;"/>
    </g>
</svg>
