<?xml version="1.0" encoding="UTF-8" standalone="no"?>
<svg
   viewBox="0 0 1000 999.99072"
   fill="none"
   version="1.1"
   id="svg2"
   sodipodi:docname="Messenger 2025.svg"
   inkscape:version="1.4 (86a8ad7, 2024-10-11)"
   xmlns:inkscape="http://www.inkscape.org/namespaces/inkscape"
   xmlns:sodipodi="http://sodipodi.sourceforge.net/DTD/sodipodi-0.dtd"
   xmlns="http://www.w3.org/2000/svg"
   xmlns:svg="http://www.w3.org/2000/svg">
  <sodipodi:namedview
     id="namedview2"
     pagecolor="#ffffff"
     bordercolor="#000000"
     borderopacity="0.25"
     inkscape:showpageshadow="2"
     inkscape:pageopacity="0.0"
     inkscape:pagecheckerboard="0"
     inkscape:deskcolor="#d1d1d1"
     inkscape:zoom="0.42702621"
     inkscape:cx="351.2665"
     inkscape:cy="293.89297"
     inkscape:window-width="1920"
     inkscape:window-height="991"
     inkscape:window-x="-9"
     inkscape:window-y="-9"
     inkscape:window-maximized="1"
     inkscape:current-layer="svg2" />
  <g
     clip-path="none"
     id="g2"
     transform="translate(-0.940002,-0.91)">
    <path
       d="m 1000.94,485.90553 c 0,278.68297 -218.33611,484.99554 -500.00001,484.99554 -50.58364,0 -99.1207,-6.66838 -144.74082,-19.2103 -8.86599,-2.45104 -18.28875,-1.75604 -26.70037,1.94548 l -99.24741,43.81288 c -25.95418,11.46807 -55.25663,-6.99732 -56.12697,-35.36414 l -2.72879,-88.95303 C 171.05517,862.18098 166.12877,851.925 157.95777,844.63842 60.667611,757.62959 0.940002,631.68181 0.940002,485.90553 0.940002,207.23536 219.27609,0.91 500.93999,0.91 782.60389,0.91 1000.94,207.23536 1000.94,485.90553 Z"
       fill="#0866ff"
       id="path1"
       style="stroke-width:12.7992" />
    <path
       d="M 636.7009,625.519 810.78129,356.48533 c 17.50544,-27.04083 -14.91617,-58.51529 -41.42711,-40.22782 l -181.7215,125.3411 c -6.12569,4.23141 -14.19685,4.34532 -20.43517,0.30334 L 405.91119,337.55278 c -13.65289,-8.82887 -31.87892,-4.9264 -40.70652,8.72649 L 191.11149,615.32573 c -17.50544,27.04083 14.91617,58.5153 41.42583,40.22655 L 414.29721,530.19966 c 6.12569,-4.23141 14.19685,-4.34532 20.44797,-0.30334 l 161.26073,104.34916 c 13.65416,8.82888 31.87892,4.92641 40.70779,-8.72648 z"
       fill="#ffffff"
       id="path2"
       style="stroke-width:12.7992" />
  </g>
  <defs
     id="defs2" />
</svg>
