<?xml version="1.0" encoding="UTF-8" standalone="no"?>
<!DOCTYPE svg PUBLIC "-//W3C//DTD SVG 1.1//EN" "http://www.w3.org/Graphics/SVG/1.1/DTD/svg11.dtd">
<svg width="100%" height="100%" viewBox="0 0 16 16" version="1.1" xmlns="http://www.w3.org/2000/svg" xmlns:xlink="http://www.w3.org/1999/xlink" xml:space="preserve" xmlns:serif="http://www.serif.com/" style="fill-rule:evenodd;clip-rule:evenodd;stroke-linejoin:round;stroke-miterlimit:2;">
    <path d="M7.969,15.938C12.328,15.938 15.938,12.32 15.938,7.969C15.938,3.609 12.32,0 7.961,0C3.609,0 0,3.609 0,7.969C0,12.32 3.617,15.938 7.969,15.938ZM7.969,14.609C4.281,14.609 1.336,11.656 1.336,7.969C1.336,4.281 4.273,1.328 7.961,1.328C11.648,1.328 14.609,4.281 14.609,7.969C14.609,11.656 11.656,14.609 7.969,14.609Z" style="fill-rule:nonzero;"/>
    <g transform="matrix(0.0165126,0,0,0.0168001,-0.39301,-0.246425)">
        <path d="M636.701,625.519L810.781,356.485C828.287,329.444 795.865,297.97 769.354,316.258L587.633,441.599C581.507,445.83 573.436,445.944 567.198,441.902L405.911,337.553C392.258,328.724 374.032,332.626 365.205,346.279L191.111,615.326C173.606,642.367 206.028,673.841 232.537,655.552L414.297,530.2C420.423,525.968 428.494,525.854 434.745,529.896L596.006,634.245C609.66,643.074 627.885,639.172 636.714,625.519L636.701,625.519Z" style="fill-rule:nonzero;"/>
    </g>
</svg>
